<svg width="34" height="34" viewBox="0 0 34 34" fill="none" xmlns="http://www.w3.org/2000/svg">
<g filter="url(#filter0_d_2_17)">
<path fill-rule="evenodd" clip-rule="evenodd" d="M24.8649 18.2C24.7357 18.0799 24.6376 17.9553 24.6044 17.84C24.4739 17.383 24.646 16.0548 24.9048 15.6401C25.1628 15.2239 24.877 13.975 24.7926 13.7683C24.7058 13.5604 24.6767 13.2906 24.3805 13.3724C24.0826 13.4558 23.4132 13.4247 22.8078 13.3002C22.2008 13.1768 21.6723 12.5921 21.5514 11.9328C21.416 11.1937 21.416 10.4757 21.5888 10.0255C21.782 9.5194 22.2577 9.32783 22.6932 9.08917C22.8938 8.97981 23.8644 8.82496 23.8279 8.358C23.6023 7.92776 21.5418 8.41707 21.4592 7.74856C21.3756 7.07886 21.3461 6.74281 21.6075 6.20401C21.8817 5.64207 21.5664 5.7171 21.4907 5.03583C21.4804 4.93884 21.6952 4.6882 21.7122 4.6C22.4231 5.0043 23.0908 5.48762 23.6899 6.06313C25.5667 7.8667 26.6 10.2645 26.6 12.8152C26.6 14.7669 25.9905 16.6255 24.8649 18.2ZM20.4437 17.8971C20.034 18.5476 20.1325 19.0268 19.1978 19.5241C18.6772 19.8014 18.3068 19.88 18.0314 20.6248C17.7548 21.368 17.2962 21.3418 16.1513 21.9456C15.0047 22.5509 14.5493 21.9456 14.4559 21.4813C14.3629 21.017 14.6455 19.9203 14.6455 19.9203C14.6455 19.9203 14.7575 19.5927 13.9452 19.2227C11.891 18.2872 13.6634 15.0029 13.6634 15.0029C13.1993 14.4596 12.0205 13.394 10.3748 13.045C8.80148 12.7121 8.3528 11.7887 7.8 10.867C8.20457 9.16055 9.05464 7.59235 10.3097 6.31877C12.1048 4.49786 14.4909 3.4 17.0315 3.4C17.0315 3.4 17.8883 3.4 18.6971 3.6124C17.9575 4.42653 17.1301 5.24952 16.5153 5.47643C15.4085 5.88752 14.8954 6.56099 14.8907 7.27839C14.8883 7.64999 15.6577 8.32345 15.6577 9.17547C15.6577 10.6236 14.595 10.657 14.471 10.0468C14.1912 8.66281 13.121 9.0203 11.8393 9.15894C10.5557 9.29879 9.77793 10.8102 10.6022 11.4147C11.428 12.0193 11.3855 11.2237 11.703 10.9968C12.0189 10.7695 12.2423 10.6796 12.4823 10.9968C12.7204 11.314 13.2366 11.4865 13.1869 12.1374C13.1436 12.7879 13.0045 13.3448 13.8769 13.3448C14.748 13.3448 14.7782 13.5391 15.331 13.8176C15.8782 14.0965 16.3965 14.0441 16.8531 14.1376C17.3117 14.2299 17.9126 15.1279 17.9126 15.1279C19.2125 15.5539 19.6401 15.728 19.999 16.0907C20.3567 16.4534 20.8582 17.2462 20.4437 17.8971ZM16.9986 1H16.9954H16.9922C12.2315 1 8.13019 3.7812 6.19038 7.8C5.43014 9.3748 5 11.1344 5 13C4.9992 19.6264 10.3653 25 16.9938 25H16.997H17.0002C23.6263 25 29.0008 19.6264 29 13.0016C29.0008 6.314 23.5467 1 16.9986 1Z" fill="white"/>
<path d="M24.8649 18.2L24.5245 18.5662L24.941 18.9534L25.2717 18.4908L24.8649 18.2ZM24.6044 17.84L24.1236 17.9773L24.124 17.9785L24.6044 17.84ZM24.9048 15.6401L25.329 15.9049L25.3298 15.9035L24.9048 15.6401ZM24.7926 13.7683L25.2556 13.5794L25.254 13.5756L24.7926 13.7683ZM24.3805 13.3724L24.2474 12.8904L24.2456 12.8909L24.3805 13.3724ZM22.8078 13.3002L22.9086 12.8104L22.9074 12.8102L22.8078 13.3002ZM21.5514 11.9328L21.0596 12.0229L21.0596 12.023L21.5514 11.9328ZM21.5888 10.0255L22.0556 10.2047L22.0559 10.2038L21.5888 10.0255ZM22.6932 9.08917L22.4539 8.65012L22.4528 8.65071L22.6932 9.08917ZM23.8279 8.358L24.3263 8.31897L24.3183 8.21667L24.2707 8.1258L23.8279 8.358ZM21.4592 7.74856L21.9554 7.68719L21.9553 7.68669L21.4592 7.74856ZM21.6075 6.20401L21.1581 5.98474L21.1576 5.9858L21.6075 6.20401ZM21.4907 5.03583L20.9936 5.08907L20.9938 5.09098L21.4907 5.03583ZM21.7122 4.6L21.9594 4.16537L21.3534 3.82078L21.2213 4.50518L21.7122 4.6ZM23.6899 6.06313L24.0364 5.70262L24.0363 5.70254L23.6899 6.06313ZM20.4437 17.8971L20.022 17.6285L20.0207 17.6306L20.4437 17.8971ZM19.1978 19.5241L18.963 19.0827L18.9628 19.0828L19.1978 19.5241ZM18.0314 20.6248L18.5 20.7992L18.5004 20.7982L18.0314 20.6248ZM16.1513 21.9456L15.918 21.5033L15.9178 21.5034L16.1513 21.9456ZM14.4559 21.4813L13.9656 21.5795L13.9657 21.5799L14.4559 21.4813ZM14.6455 19.9203L14.1724 19.7585L14.1661 19.7768L14.1613 19.7956L14.6455 19.9203ZM13.9452 19.2227L14.1525 18.7677L14.1524 18.7676L13.9452 19.2227ZM13.6634 15.0029L14.1035 15.2404L14.2662 14.9387L14.0436 14.6781L13.6634 15.0029ZM10.3748 13.045L10.4786 12.5559L10.4783 12.5558L10.3748 13.045ZM7.8 10.867L7.31349 10.7517L7.26654 10.9497L7.3712 11.1242L7.8 10.867ZM10.3097 6.31877L9.9536 5.96774L9.95353 5.96782L10.3097 6.31877ZM18.6971 3.6124L19.0672 3.9486L19.6216 3.33826L18.8241 3.1288L18.6971 3.6124ZM16.5153 5.47643L16.3422 5.00735L16.3412 5.00771L16.5153 5.47643ZM14.8907 7.27839L14.3907 7.27506L14.3907 7.27518L14.8907 7.27839ZM14.471 10.0468L13.9809 10.1459L13.981 10.1464L14.471 10.0468ZM11.8393 9.15894L11.7855 8.66184L11.7852 8.66188L11.8393 9.15894ZM10.6022 11.4147L10.3064 11.8179L10.3068 11.8182L10.6022 11.4147ZM11.703 10.9968L11.9937 11.4036L11.995 11.4026L11.703 10.9968ZM12.4823 10.9968L12.8822 10.6966L12.881 10.695L12.4823 10.9968ZM13.1869 12.1374L12.6884 12.0993L12.688 12.1041L13.1869 12.1374ZM15.331 13.8176L15.558 13.3721L15.556 13.3711L15.331 13.8176ZM16.8531 14.1376L16.7528 14.6274L16.7544 14.6278L16.8531 14.1376ZM17.9126 15.1279L17.497 15.4059L17.593 15.5493L17.7569 15.603L17.9126 15.1279ZM19.999 16.0907L20.355 15.7396L20.3545 15.7391L19.999 16.0907ZM6.19038 7.8L6.64065 8.01737L6.64067 8.01735L6.19038 7.8ZM5 13L5.5 13.0001V13H5ZM29 13.0016L28.5 13.0015L28.5 13.0017L29 13.0016ZM25.2054 17.8338C25.1563 17.7882 25.1222 17.7499 25.1006 17.7208C25.0775 17.6896 25.0796 17.6834 25.0849 17.7015L24.124 17.9785C24.1962 18.2292 24.379 18.4309 24.5245 18.5662L25.2054 17.8338ZM25.0852 17.7027C25.0727 17.6591 25.0582 17.5484 25.0599 17.3665C25.0615 17.1953 25.0769 16.9944 25.1042 16.7906C25.1315 16.5866 25.1695 16.3887 25.2135 16.223C25.2604 16.0468 25.3045 15.9441 25.329 15.9049L24.4807 15.3754C24.3757 15.5434 24.3013 15.7623 24.2471 15.9661C24.1902 16.1803 24.1448 16.4208 24.113 16.6578C24.0813 16.895 24.062 17.1377 24.0599 17.3571C24.058 17.5657 24.0709 17.7924 24.1236 17.9773L25.0852 17.7027ZM25.3298 15.9035C25.4636 15.6876 25.4983 15.4252 25.5075 15.2239C25.5174 15.0059 25.5 14.7733 25.4731 14.5624C25.4211 14.1548 25.3217 13.7415 25.2556 13.5794L24.3297 13.9572C24.3293 13.9562 24.3369 13.9765 24.3509 14.0263C24.3636 14.0716 24.3786 14.1306 24.3944 14.2001C24.426 14.3394 24.4585 14.512 24.4811 14.6889C24.504 14.868 24.5149 15.0386 24.5085 15.1783C24.5014 15.3347 24.475 15.3845 24.4798 15.3767L25.3298 15.9035ZM25.254 13.5756C25.2374 13.5359 25.2318 13.5142 25.2026 13.4348C25.181 13.3761 25.1437 13.2788 25.0818 13.1855C25.0155 13.0854 24.9058 12.9666 24.7321 12.9019C24.5603 12.8379 24.3902 12.851 24.2474 12.8904L24.5136 13.8543C24.5188 13.8529 24.4635 13.869 24.3831 13.8391C24.301 13.8085 24.2595 13.7548 24.2483 13.7379C24.2416 13.7278 24.2463 13.7318 24.2639 13.7797C24.2729 13.8041 24.2789 13.8219 24.2913 13.8564C24.3018 13.886 24.3153 13.9227 24.3312 13.961L25.254 13.5756ZM24.2456 12.8909C24.1769 12.9101 24.0014 12.9272 23.7325 12.9148C23.4785 12.9031 23.1858 12.8674 22.9086 12.8104L22.7071 13.7899C23.0352 13.8574 23.3799 13.8996 23.6864 13.9137C23.978 13.9272 24.2861 13.9181 24.5153 13.8539L24.2456 12.8909ZM22.9074 12.8102C22.5275 12.733 22.1325 12.3296 22.0432 11.8426L21.0596 12.023C21.2121 12.8546 21.8741 13.6207 22.7083 13.7901L22.9074 12.8102ZM22.0432 11.8427C21.9132 11.1331 21.9324 10.5255 22.0556 10.2047L21.122 9.84626C20.8995 10.4258 20.9187 11.2542 21.0596 12.0229L22.0432 11.8427ZM22.0559 10.2038C22.1072 10.0695 22.1961 9.96714 22.3406 9.864C22.506 9.74599 22.6791 9.66703 22.9335 9.52762L22.4528 8.65071C22.2718 8.74996 21.9894 8.88612 21.7597 9.05008C21.5091 9.22891 21.2636 9.47537 21.1217 9.84714L22.0559 10.2038ZM22.9324 9.52821C22.9169 9.53666 22.9186 9.53373 22.9628 9.51863C23.0008 9.50563 23.0472 9.49118 23.1098 9.47156C23.2272 9.43477 23.3873 9.38425 23.5434 9.31853C23.6941 9.25512 23.8807 9.16176 24.0328 9.02178C24.1934 8.87395 24.3512 8.63705 24.3263 8.31897L23.3294 8.39703C23.3228 8.31243 23.373 8.27 23.3556 8.28595C23.3298 8.30975 23.268 8.34949 23.1555 8.39683C23.0485 8.44186 22.9306 8.47975 22.8107 8.51735C22.7546 8.53492 22.6926 8.55416 22.6393 8.57238C22.5921 8.5885 22.5196 8.61434 22.4539 8.65012L22.9324 9.52821ZM24.2707 8.1258C24.1593 7.91347 23.9669 7.81473 23.8393 7.76718C23.7047 7.71701 23.5582 7.69261 23.4293 7.67832C23.1756 7.6502 22.8572 7.6497 22.6035 7.64281C22.3214 7.63517 22.1044 7.61989 21.9598 7.5818C21.7904 7.53718 21.9356 7.52695 21.9554 7.68719L20.9629 7.80994C21.0241 8.30443 21.4579 8.48372 21.7051 8.54883C21.9771 8.62045 22.3047 8.63508 22.5764 8.64245C22.8763 8.65058 23.1204 8.65021 23.3191 8.67223C23.4164 8.68301 23.4686 8.6962 23.4901 8.70423C23.5187 8.71488 23.44 8.69497 23.385 8.5902L24.2707 8.1258ZM21.9553 7.68669C21.9125 7.34367 21.8916 7.13908 21.903 6.95873C21.9132 6.79726 21.9509 6.64165 22.0574 6.42222L21.1576 5.9858C21.0027 6.30518 20.9245 6.58699 20.905 6.89567C20.8867 7.18547 20.9223 7.48375 20.963 7.81043L21.9553 7.68669ZM22.0568 6.42329C22.1371 6.2588 22.1974 6.09585 22.2133 5.9273C22.231 5.74108 22.1903 5.59473 22.1453 5.48087C22.0696 5.28939 22.0158 5.23411 21.9877 4.98067L20.9938 5.09098C21.0413 5.51882 21.183 5.76666 21.2153 5.84847C21.2243 5.87125 21.2158 5.85409 21.2178 5.83313C21.2181 5.82985 21.215 5.86826 21.1581 5.98474L22.0568 6.42329ZM21.9879 4.98258C21.9967 5.06456 21.9796 5.12304 21.9753 5.1371C21.9695 5.1565 21.9645 5.16534 21.9672 5.1599C21.973 5.14807 21.9864 5.12495 22.0132 5.0828C22.0335 5.0509 22.0712 4.9933 22.0981 4.94826C22.1128 4.92371 22.1309 4.89208 22.1475 4.85765C22.1614 4.82896 22.1887 4.76943 22.2031 4.69481L21.2213 4.50518C21.227 4.4754 21.2345 4.45377 21.2384 4.44327C21.2427 4.43189 21.2462 4.42461 21.2472 4.4225C21.2489 4.41903 21.2475 4.42221 21.2398 4.43508C21.222 4.46487 21.2034 4.49254 21.1692 4.54644C21.1414 4.5901 21.102 4.65334 21.0699 4.71853C21.0536 4.75161 21.0335 4.79662 21.0178 4.84864C21.0038 4.89531 20.9822 4.98285 20.9936 5.08907L21.9879 4.98258ZM21.465 5.03463C22.144 5.42079 22.7775 5.88 23.3435 6.42372L24.0363 5.70254C23.4041 5.09523 22.7022 4.5878 21.9594 4.16537L21.465 5.03463ZM23.3435 6.42364C25.1244 8.1351 26.1 10.4037 26.1 12.8152H27.1C27.1 10.1254 26.009 7.5983 24.0364 5.70262L23.3435 6.42364ZM26.1 12.8152C26.1 14.6607 25.5242 16.418 24.4582 17.9092L25.2717 18.4908C26.4568 16.833 27.1 14.8731 27.1 12.8152H26.1ZM20.0207 17.6306C19.8983 17.8249 19.8159 18.0036 19.7495 18.1557C19.6792 18.3165 19.6367 18.4222 19.5786 18.5289C19.485 18.7007 19.3497 18.877 18.963 19.0827L19.4327 19.9656C19.9807 19.674 20.2635 19.362 20.4567 19.0072C20.542 18.8506 20.6101 18.6835 20.6658 18.556C20.7253 18.4197 20.7843 18.2946 20.8668 18.1636L20.0207 17.6306ZM18.9628 19.0828C18.8261 19.1556 18.7487 19.19 18.6051 19.2642C18.4832 19.3272 18.349 19.4022 18.2183 19.5025C17.9387 19.7171 17.7268 20.0069 17.5625 20.4514L18.5004 20.7982C18.6114 20.498 18.7225 20.3761 18.8271 20.2958C18.8884 20.2488 18.9617 20.2055 19.0642 20.1526C19.1451 20.1108 19.3093 20.0313 19.4329 19.9655L18.9628 19.0828ZM17.5628 20.4504C17.5104 20.5914 17.4588 20.6712 17.4094 20.7264C17.3592 20.7825 17.2912 20.8356 17.1748 20.9C17.0511 20.9685 16.9014 21.0349 16.6834 21.1333C16.4725 21.2285 16.218 21.3451 15.918 21.5033L16.3845 22.3878C16.6569 22.2442 16.8892 22.1376 17.0949 22.0447C17.2936 21.955 17.4905 21.8683 17.6591 21.775C17.8351 21.6775 18.0052 21.5602 18.1545 21.3933C18.3047 21.2255 18.4142 21.0299 18.5 20.7992L17.5628 20.4504ZM15.9178 21.5034C15.4218 21.7653 15.2009 21.7015 15.1313 21.6669C15.0462 21.6245 14.9739 21.5213 14.9461 21.3827L13.9657 21.5799C14.0312 21.9056 14.2334 22.3371 14.686 22.5622C15.1541 22.795 15.7342 22.7312 16.3847 22.3877L15.9178 21.5034ZM14.9461 21.3831C14.9368 21.3365 14.9323 21.2367 14.9447 21.0813C14.9564 20.9349 14.9801 20.7714 15.0081 20.6142C15.0358 20.458 15.0665 20.3145 15.0903 20.2098C15.1022 20.1577 15.1122 20.1156 15.1192 20.087C15.1227 20.0727 15.1254 20.0617 15.1272 20.0546C15.1281 20.0511 15.1288 20.0484 15.1292 20.0468C15.1294 20.046 15.1295 20.0455 15.1296 20.0452C15.1297 20.045 15.1297 20.045 15.1297 20.0449C15.1297 20.0449 15.1297 20.0449 15.1297 20.045C15.1297 20.045 15.1297 20.045 15.1297 20.045C15.1296 20.045 15.1296 20.0451 14.6455 19.9203C14.1613 19.7956 14.1613 19.7956 14.1612 19.7957C14.1612 19.7957 14.1612 19.7958 14.1612 19.7958C14.1612 19.7959 14.1612 19.796 14.1611 19.7961C14.1611 19.7964 14.161 19.7967 14.1609 19.7971C14.1607 19.7978 14.1604 19.7989 14.1601 19.8001C14.1594 19.8027 14.1585 19.8063 14.1574 19.8109C14.1551 19.8201 14.1518 19.8332 14.1478 19.8497C14.1397 19.8829 14.1284 19.9301 14.1152 19.988C14.089 20.1035 14.0548 20.2632 14.0235 20.4392C13.9924 20.6142 13.963 20.8119 13.9479 21.0017C13.9334 21.1825 13.9285 21.3939 13.9656 21.5795L14.9461 21.3831ZM14.6455 19.9203C15.1185 20.0821 15.1187 20.0815 15.119 20.081C15.119 20.0808 15.1192 20.0802 15.1194 20.0797C15.1196 20.0789 15.1199 20.0781 15.1202 20.0773C15.1207 20.0757 15.1213 20.074 15.1218 20.0723C15.1229 20.0688 15.124 20.0653 15.1251 20.0616C15.1273 20.0542 15.1295 20.0463 15.1316 20.0378C15.1358 20.0209 15.1398 20.0019 15.143 19.981C15.1494 19.9389 15.1527 19.8893 15.1494 19.8335C15.1425 19.7191 15.1084 19.5918 15.0337 19.4615C14.8876 19.2069 14.608 18.9751 14.1525 18.7677L13.738 19.6777C14.0947 19.8402 14.1652 19.9572 14.1662 19.959C14.1663 19.9591 14.1654 19.9576 14.1641 19.9545C14.1627 19.9513 14.1609 19.9468 14.1592 19.9408C14.1555 19.9287 14.1523 19.9127 14.1512 19.8932C14.15 19.8739 14.1509 19.8528 14.1544 19.8301C14.1561 19.8188 14.1585 19.8072 14.1614 19.7953C14.1629 19.7893 14.1646 19.7833 14.1664 19.7772C14.1673 19.7741 14.1683 19.771 14.1692 19.7679C14.1697 19.7664 14.1703 19.7648 14.1708 19.7632C14.171 19.7625 14.1713 19.7617 14.1716 19.7609C14.1717 19.7605 14.1719 19.7599 14.172 19.7597C14.1722 19.7591 14.1724 19.7585 14.6455 19.9203ZM14.1524 18.7676C13.7846 18.6001 13.6027 18.3442 13.5161 18.0342C13.4232 17.7014 13.4387 17.2911 13.5244 16.8594C13.6089 16.4339 13.7537 16.0273 13.8803 15.7226C13.9431 15.5716 14.0002 15.4485 14.0412 15.3641C14.0616 15.322 14.0779 15.2897 14.0887 15.2686C14.0942 15.258 14.0982 15.2503 14.1007 15.2455C14.102 15.2432 14.1028 15.2415 14.1033 15.2407C14.1035 15.2402 14.1037 15.24 14.1037 15.2399C14.1037 15.2399 14.1037 15.2399 14.1037 15.24C14.1036 15.2401 14.1036 15.2401 14.1036 15.2402C14.1035 15.2403 14.1035 15.2404 13.6634 15.0029C13.2234 14.7655 13.2234 14.7656 13.2233 14.7658C13.2232 14.7658 13.2231 14.766 13.2231 14.7661C13.2229 14.7664 13.2227 14.7667 13.2225 14.7671C13.2221 14.7679 13.2216 14.7688 13.221 14.77C13.2198 14.7723 13.2182 14.7753 13.2161 14.7792C13.212 14.7869 13.2064 14.7977 13.1993 14.8115C13.1852 14.8389 13.1655 14.8781 13.1414 14.9276C13.0935 15.0265 13.0282 15.1673 12.9569 15.3388C12.8154 15.6792 12.6454 16.1521 12.5436 16.6646C12.443 17.1709 12.4005 17.7571 12.553 18.3032C12.7118 18.8721 13.0787 19.3775 13.738 19.6777L14.1524 18.7676ZM14.0436 14.6781C13.537 14.0852 12.2689 12.9356 10.4786 12.5559L10.2711 13.5341C11.7722 13.8525 12.8615 14.8341 13.2833 15.3277L14.0436 14.6781ZM10.4783 12.5558C9.78469 12.409 9.3689 12.1418 9.06273 11.8278C8.73626 11.4929 8.52145 11.0978 8.2288 10.6098L7.3712 11.1242C7.63135 11.5579 7.91729 12.0854 8.3467 12.5258C8.79641 12.9871 9.39164 13.348 10.2713 13.5342L10.4783 12.5558ZM8.28651 10.9823C8.67049 9.36276 9.47647 7.87664 10.6658 6.66972L9.95353 5.96782C8.6328 7.30807 7.73865 8.95834 7.31349 10.7517L8.28651 10.9823ZM10.6657 6.66979C12.3768 4.93416 14.6382 3.9 17.0315 3.9V2.9C14.3435 2.9 11.8328 4.06157 9.9536 5.96774L10.6657 6.66979ZM17.0315 3.4C17.0315 3.9 17.0315 3.9 17.0314 3.9C17.0314 3.9 17.0313 3.9 17.0313 3.9C17.0313 3.9 17.0312 3.9 17.0312 3.9C17.0311 3.9 17.0311 3.9 17.0312 3.9C17.0313 3.9 17.0315 3.9 17.032 3.9C17.033 3.90001 17.0348 3.90002 17.0373 3.90004C17.0424 3.90008 17.0506 3.90016 17.0616 3.90035C17.0837 3.90071 17.1171 3.90146 17.1602 3.903C17.2465 3.90608 17.3707 3.91229 17.5191 3.92479C17.8187 3.95001 18.2039 3.99982 18.5701 4.096L18.8241 3.1288C18.3816 3.01258 17.934 2.95619 17.603 2.92831C17.4361 2.91426 17.2955 2.90719 17.1959 2.90364C17.146 2.90186 17.1062 2.90095 17.0782 2.90048C17.0642 2.90025 17.0532 2.90013 17.0454 2.90007C17.0414 2.90004 17.0383 2.90002 17.036 2.90001C17.0348 2.90001 17.0339 2.9 17.0331 2.9C17.0328 2.9 17.0324 2.9 17.0322 2.9C17.032 2.9 17.0319 2.9 17.0318 2.9C17.0318 2.9 17.0317 2.9 17.0317 2.9C17.0316 2.9 17.0315 2.9 17.0315 3.4ZM18.327 3.27619C17.9614 3.67862 17.5833 4.07299 17.2264 4.39166C16.8584 4.72025 16.5564 4.9283 16.3422 5.00736L16.6884 5.9455C17.089 5.79764 17.5081 5.48074 17.8924 5.13758C18.2878 4.7845 18.6932 4.3603 19.0672 3.9486L18.327 3.27619ZM16.3412 5.00771C15.1221 5.4605 14.3973 6.27391 14.3907 7.27506L15.3906 7.28171C15.3935 6.84807 15.6948 6.31454 16.6894 5.94514L16.3412 5.00771ZM14.3907 7.27518C14.3891 7.51296 14.502 7.72832 14.5728 7.85534C14.6467 7.98781 14.767 8.17425 14.8441 8.30329C15.0295 8.61346 15.1577 8.89432 15.1577 9.17547H16.1577C16.1577 8.6046 15.9012 8.12272 15.7024 7.79025C15.5875 7.59797 15.5158 7.49312 15.4462 7.36818C15.3734 7.23779 15.391 7.22961 15.3906 7.2816L14.3907 7.27518ZM15.1577 9.17547C15.1577 9.79903 14.9355 9.91461 14.9242 9.91913C14.9106 9.92461 14.918 9.91713 14.9369 9.92685C14.9589 9.93815 14.9626 9.95523 14.961 9.94726L13.981 10.1464C14.1093 10.7779 14.7459 11.0687 15.2974 10.8469C15.8485 10.6252 16.1577 10 16.1577 9.17547H15.1577ZM14.9611 9.94775C14.8786 9.53991 14.726 9.20045 14.4747 8.95032C14.2189 8.69573 13.9084 8.58087 13.6018 8.53694C13.3053 8.49447 12.9909 8.5152 12.6971 8.54756C12.5478 8.56401 12.3935 8.58481 12.2428 8.60491C12.09 8.6253 11.9388 8.64526 11.7855 8.66184L11.8931 9.65604C12.0603 9.63796 12.2229 9.61642 12.375 9.59613C12.5293 9.57555 12.671 9.55648 12.8066 9.54155C13.0827 9.51114 13.2936 9.503 13.4599 9.52683C13.6161 9.5492 13.7057 9.59581 13.7693 9.65911C13.8374 9.72687 13.9235 9.86173 13.9809 10.1459L14.9611 9.94775ZM11.7852 8.66188C10.9621 8.75156 10.3106 9.27613 9.98939 9.87675C9.6751 10.4644 9.61222 11.3087 10.3064 11.8179L10.8979 11.0115C10.7679 10.9162 10.6817 10.7026 10.8712 10.3484C11.0537 10.0072 11.4329 9.70618 11.8935 9.656L11.7852 8.66188ZM10.3068 11.8182C10.5392 11.9883 10.787 12.1201 11.0486 12.1355C11.3584 12.1537 11.5803 12.0063 11.72 11.8462C11.8317 11.7181 11.9167 11.5465 11.9509 11.4844C12.0074 11.3821 12.0175 11.3866 11.9937 11.4036L11.4123 10.59C11.2298 10.7204 11.1261 10.9094 11.0754 11.0012C11.0025 11.1332 10.987 11.1653 10.9664 11.1889C10.9643 11.1913 10.9785 11.1741 11.0112 11.1582C11.0478 11.1404 11.0838 11.1358 11.1073 11.1372C11.1347 11.1388 11.0781 11.1434 10.8975 11.0113L10.3068 11.8182ZM11.995 11.4026C12.0669 11.351 12.1164 11.3197 12.1524 11.3012C12.1887 11.2826 12.1897 11.2884 12.1658 11.2906C12.1522 11.2918 12.1339 11.2915 12.1131 11.2873C12.0923 11.283 12.0754 11.276 12.0637 11.2696C12.0425 11.258 12.051 11.2554 12.0836 11.2985L12.881 10.695C12.6984 10.4537 12.4323 10.2627 12.0765 10.2946C11.7987 10.3195 11.562 10.4823 11.411 10.5909L11.995 11.4026ZM12.0824 11.2969C12.1767 11.4225 12.29 11.5231 12.3706 11.5936C12.4628 11.6743 12.5223 11.7243 12.5764 11.7824C12.6572 11.8693 12.7003 11.9437 12.6884 12.0993L13.6855 12.1754C13.7233 11.6801 13.5331 11.3428 13.3087 11.1015C13.2101 10.9954 13.099 10.9022 13.0291 10.841C12.9474 10.7696 12.907 10.7296 12.8822 10.6966L12.0824 11.2969ZM12.688 12.1041C12.6794 12.2343 12.6598 12.4328 12.6542 12.5813C12.6481 12.7401 12.6507 12.9402 12.7112 13.134C12.778 13.3478 12.9135 13.5482 13.1465 13.6816C13.3609 13.8043 13.6139 13.8448 13.8769 13.8448V12.8448C13.7036 12.8448 13.6469 12.8158 13.6434 12.8137C13.6433 12.8137 13.6458 12.8151 13.6497 12.8185C13.6536 12.8219 13.6576 12.8261 13.6611 12.8307C13.6684 12.8403 13.6686 12.8448 13.6658 12.836C13.6575 12.8093 13.6485 12.7482 13.6534 12.6196C13.6587 12.4807 13.6728 12.3657 13.6858 12.1706L12.688 12.1041ZM13.8769 13.8448C14.2751 13.8448 14.422 13.8895 14.5184 13.9329C14.578 13.9596 14.6346 13.9933 14.7329 14.0532C14.8275 14.1109 14.9482 14.1846 15.106 14.2641L15.556 13.3711C15.4374 13.3114 15.347 13.2564 15.2532 13.1992C15.1632 13.1444 15.0542 13.0773 14.9282 13.0207C14.6536 12.8973 14.3497 12.8448 13.8769 12.8448V13.8448ZM15.104 14.2631C15.4485 14.4387 15.7774 14.5057 16.061 14.5429C16.3821 14.585 16.5412 14.5841 16.7528 14.6274L16.9534 13.6478C16.7084 13.5976 16.38 13.5762 16.191 13.5514C15.9646 13.5217 15.7608 13.4754 15.558 13.3721L15.104 14.2631ZM16.7544 14.6278C16.7514 14.6272 16.7993 14.6409 16.8988 14.7209C16.9889 14.7934 17.0858 14.8912 17.1793 14.9975C17.2714 15.1022 17.352 15.2058 17.4099 15.2839C17.4387 15.3227 17.4613 15.3545 17.4764 15.376C17.4839 15.3867 17.4895 15.3949 17.493 15.4C17.4948 15.4026 17.496 15.4044 17.4967 15.4054C17.497 15.4059 17.4972 15.4062 17.4973 15.4063C17.4973 15.4063 17.4973 15.4063 17.4973 15.4063C17.4973 15.4062 17.4972 15.4062 17.4972 15.4061C17.4972 15.4061 17.4971 15.4061 17.4971 15.406C17.4971 15.406 17.497 15.4059 17.9126 15.1279C18.3281 14.8498 18.3281 14.8497 18.328 14.8497C18.328 14.8496 18.328 14.8496 18.3279 14.8495C18.3279 14.8494 18.3278 14.8493 18.3277 14.8491C18.3275 14.8489 18.3273 14.8485 18.327 14.8481C18.3265 14.8474 18.3258 14.8464 18.325 14.8452C18.3234 14.8428 18.3212 14.8395 18.3185 14.8355C18.3129 14.8275 18.3052 14.8162 18.2954 14.8022C18.2758 14.7743 18.2479 14.7352 18.2132 14.6883C18.1441 14.5951 18.0458 14.4685 17.9303 14.3372C17.8162 14.2075 17.677 14.0635 17.5254 13.9416C17.3833 13.8273 17.1841 13.6942 16.9517 13.6474L16.7544 14.6278ZM17.7569 15.603C19.0876 16.0391 19.386 16.182 19.6436 16.4424L20.3545 15.7391C19.8943 15.2739 19.3374 15.0686 18.0683 14.6527L17.7569 15.603ZM19.643 16.4418C19.785 16.5858 19.9533 16.8156 20.0411 17.0569C20.127 17.2927 20.1178 17.478 20.022 17.6285L20.8655 18.1657C21.1841 17.6653 21.1315 17.1287 20.9808 16.7148C20.832 16.3063 20.5707 15.9583 20.355 15.7396L19.643 16.4418ZM16.9986 0.5H16.9954V1.5H16.9986V0.5ZM16.9954 0.5H16.9922V1.5H16.9954V0.5ZM16.9922 0.5C12.0311 0.5 7.75959 3.39877 5.74009 7.58265L6.64067 8.01735C8.5008 4.16363 12.4318 1.5 16.9922 1.5V0.5ZM5.7401 7.58263C4.9483 9.2228 4.5 11.0565 4.5 13H5.5C5.5 11.2123 5.91197 9.5268 6.64065 8.01737L5.7401 7.58263ZM4.5 12.9999C4.49917 19.9022 10.0888 25.5 16.9938 25.5V24.5C10.6418 24.5 5.49923 19.3506 5.5 13.0001L4.5 12.9999ZM16.9938 25.5H16.997V24.5H16.9938V25.5ZM16.997 25.5H17.0002V24.5H16.997V25.5ZM17.0002 25.5C23.9023 25.5 29.5008 19.9026 29.5 13.0015L28.5 13.0017C28.5008 19.3502 23.3503 24.5 17.0002 24.5V25.5ZM29.5 13.0017C29.5008 6.03405 23.819 0.5 16.9986 0.5V1.5C23.2744 1.5 28.5008 6.59395 28.5 13.0015L29.5 13.0017Z" fill="black"/>
</g>
<defs>
<filter id="filter0_d_2_17" x="0.5" y="0.5" width="33" height="33" filterUnits="userSpaceOnUse" color-interpolation-filters="sRGB">
<feFlood flood-opacity="0" result="BackgroundImageFix"/>
<feColorMatrix in="SourceAlpha" type="matrix" values="0 0 0 0 0 0 0 0 0 0 0 0 0 0 0 0 0 0 127 0" result="hardAlpha"/>
<feOffset dy="4"/>
<feGaussianBlur stdDeviation="2"/>
<feComposite in2="hardAlpha" operator="out"/>
<feColorMatrix type="matrix" values="0 0 0 0 0 0 0 0 0 0 0 0 0 0 0 0 0 0 0.25 0"/>
<feBlend mode="normal" in2="BackgroundImageFix" result="effect1_dropShadow_2_17"/>
<feBlend mode="normal" in="SourceGraphic" in2="effect1_dropShadow_2_17" result="shape"/>
</filter>
</defs>
</svg>
